HIERARCHY
ROOT Pelvis
{
	OFFSET 0.000000 0.000000 0.000000
	CHANNELS 6 Xposition Yposition Zposition Xrotation Yrotation Zrotation
	JOINT LeftUpLeg_virtual
	{
		OFFSET 0.000000 0.000000 0.000000
		CHANNELS 3 Xrotation Yrotation Zrotation
		JOINT LeftUpLeg
		{
			OFFSET 18.735201 -5.666702 -4.541200
			CHANNELS 3 Xrotation Yrotation Zrotation
			JOINT LeftLeg
			{
				OFFSET -0.021200 -31.938179 0.493100
				CHANNELS 3 Xrotation Yrotation Zrotation
				JOINT LeftFoot
				{
					OFFSET 0.021200 -31.938179 -4.336299
					CHANNELS 3 Xrotation Yrotation Zrotation
					JOINT LeftToeBase
					{
						OFFSET 0.943001 -26.722000 15.023500
						CHANNELS 3 Xrotation Yrotation Zrotation
						End Site
						{
							OFFSET 0 0 0
						}
					}
				}
			}
		}
	}
	JOINT RightUpLeg_virtual
	{
		OFFSET 0.000000 0.000000 0.000000
		CHANNELS 3 Xrotation Yrotation Zrotation
		JOINT RightUpLeg
		{
			OFFSET -18.735201 -5.666702 -4.541200
			CHANNELS 3 Xrotation Yrotation Zrotation
			JOINT RightLeg
			{
				OFFSET 0.018946 -31.938133 0.493100
				CHANNELS 3 Xrotation Yrotation Zrotation
				JOINT RightFoot
				{
					OFFSET -0.018946 -31.938126 -4.336299
					CHANNELS 3 Xrotation Yrotation Zrotation
					JOINT RightToeBase
					{
						OFFSET -0.943001 -26.722004 15.023500
						CHANNELS 3 Xrotation Yrotation Zrotation
						End Site
						{
							OFFSET 0 0 0
						}
					}
				}
			}
		}
	}
	JOINT Hips_virtual
	{
		OFFSET 0.000000 0.000000 0.000000
		CHANNELS 3 Xrotation Yrotation Zrotation
		JOINT Hips
		{
			OFFSET -0.000000 -0.000000 -0.000000
			CHANNELS 3 Xrotation Yrotation Zrotation
			JOINT Spine
			{
				OFFSET 0.000000 10.199997 -0.299500
				CHANNELS 3 Xrotation Yrotation Zrotation
				JOINT Spine1
				{
					OFFSET 0.000000 11.900002 -1.516600
					CHANNELS 3 Xrotation Yrotation Zrotation
					JOINT Spine2
					{
						OFFSET 0.000000 13.600006 -2.842500
						CHANNELS 3 Xrotation Yrotation Zrotation
						JOINT Neck_virtual
						{
							OFFSET 0.000000 0.000000 0.000000
							CHANNELS 3 Xrotation Yrotation Zrotation
							JOINT Neck
							{
								OFFSET 0.000000 9.624100 -2.890100
								CHANNELS 3 Xrotation Yrotation Zrotation
								JOINT Head
								{
									OFFSET 0.000000 14.068802 -1.351900
									CHANNELS 3 Xrotation Yrotation Zrotation
									End Site
									{
										OFFSET 0 0 0
									}
								}
							}
						}
						JOINT LeftShoulder_virtual
						{
							OFFSET 0.000000 0.000000 0.000000
							CHANNELS 3 Xrotation Yrotation Zrotation
							JOINT LeftShoulder
							{
								OFFSET 15.263000 10.923401 -0.547700
								CHANNELS 3 Xrotation Yrotation Zrotation
								JOINT LeftArm
								{
									OFFSET 25.438599 -2.830597 -13.032500
									CHANNELS 3 Xrotation Yrotation Zrotation
									JOINT LeftForeArm
									{
										OFFSET 29.960503 0.000000 0.000000
										CHANNELS 3 Xrotation Yrotation Zrotation
										JOINT LeftHand
										{
											OFFSET 27.849251 0.000000 0.000000
											CHANNELS 3 Xrotation Yrotation Zrotation
											End Site
											{
												OFFSET 0 0 0
											}
										}
									}
								}
							}
						}
						JOINT RightShoulder_virtual
						{
							OFFSET 0.000000 0.000000 0.000000
							CHANNELS 3 Xrotation Yrotation Zrotation
							JOINT RightShoulder
							{
								OFFSET -15.263000 10.923401 -0.547700
								CHANNELS 3 Xrotation Yrotation Zrotation
								JOINT RightArm
								{
									OFFSET -25.438599 -2.830597 -13.032500
									CHANNELS 3 Xrotation Yrotation Zrotation
									JOINT RightForeArm
									{
										OFFSET -29.960503 0.000000 0.000000
										CHANNELS 3 Xrotation Yrotation Zrotation
										JOINT RightHand
										{
											OFFSET -27.849251 0.000000 0.000000
											CHANNELS 3 Xrotation Yrotation Zrotation
											End Site
											{
												OFFSET 0 0 0
											}
										}
									}
								}
							}
						}
					}
				}
			}
		}
	}
}
MOTION
Frames: 10
Frame Time: 0.03333333
-12.326845 77.965553 6.987986 0.000000 0.000000 0.000000 5.733037 -41.159680 12.499868 -57.211396 26.767491 42.605422 42.781180 -29.328265 2.457845 2.389919 2.169506 -19.503742 0.000000 0.000000 0.000000 5.733037 -41.159680 12.499868 -16.285551 -5.608393 -37.011484 58.903285 4.311994 -6.701660 -44.838351 -12.203921 28.218776 0.000000 0.000000 0.000000 5.733037 -41.159680 12.499868 0.000000 -0.000003 0.000000 17.917396 -5.965535 2.993435 28.909028 -4.182644 -1.799676 0.000000 0.000000 0.000000 17.801735 -2.616837 -3.497802 0.762470 -0.256367 3.482688 0.000000 0.000000 0.000000 17.801735 -2.616837 -3.497802 2.354296 -30.783103 2.356264 -34.242829 -26.233527 -29.291420 -7.515757 -26.361388 1.290844 0.000000 0.000000 0.000000 17.801735 -2.616837 -3.497802 -0.512606 12.805418 24.404312 -20.406285 -19.745802 20.483662 -21.211004 81.262886 19.903188 0.000000 0.000000 0.000000 
-11.915880 78.241631 7.032110 0.000000 0.000000 0.000000 4.197485 -40.620006 11.049993 -57.167369 26.729262 42.716054 43.045840 -29.424660 2.484301 2.748408 1.333215 -18.759106 0.000000 0.000000 0.000000 4.197485 -40.620006 11.049993 -14.639382 -6.599452 -36.737928 57.624305 4.110924 -6.639413 -44.089349 -12.232000 28.490129 0.000000 0.000000 0.000000 4.197485 -40.620006 11.049993 0.000000 -0.000003 0.000001 17.692300 -5.847145 2.895389 28.357204 -3.983565 -2.018758 0.000000 0.000000 0.000000 17.259820 -2.365353 -3.582338 0.688213 -0.001170 3.695600 0.000000 0.000000 0.000000 17.259820 -2.365353 -3.582338 2.328564 -30.676869 2.585250 -33.628815 -25.347563 -29.746515 -7.805141 -23.996591 1.221979 0.000000 0.000000 0.000000 17.259820 -2.365353 -3.582338 -0.608449 13.107898 25.085202 -20.872682 -20.553212 19.260992 -11.667156 82.321360 10.693630 0.000000 0.000000 0.000000 
-11.523457 78.464417 7.102152 0.000000 0.000000 0.000000 2.977798 -39.889623 9.787462 -57.453680 26.595058 42.814897 43.408489 -29.538212 2.518069 3.125302 0.449172 -17.978625 0.000000 0.000000 0.000000 2.977798 -39.889623 9.787462 -13.021653 -7.582774 -36.291660 56.300771 3.798457 -6.579600 -43.378992 -12.418967 28.767521 0.000000 0.000000 0.000000 2.977798 -39.889623 9.787462 0.000000 -0.000002 0.000000 17.488810 -5.649355 2.942383 27.805750 -3.750687 -1.987563 0.000000 0.000000 0.000000 16.722207 -2.190752 -3.347003 0.496633 0.164457 3.672379 0.000000 0.000000 0.000000 16.722207 -2.190752 -3.347003 2.243013 -30.396227 2.625586 -33.029176 -24.760052 -30.398136 -7.945678 -22.391727 0.965508 0.000000 0.000000 0.000000 16.722207 -2.190752 -3.347003 -0.501969 12.543237 24.284797 -20.300886 -21.057207 19.750055 -3.535479 83.023996 2.884379 0.000000 0.000000 0.000000 
-11.126951 78.672165 7.179319 0.000000 0.000000 0.000000 1.905217 -39.045582 8.667355 -57.817312 26.494367 42.820020 43.714969 -29.643065 2.547912 3.566382 -0.467565 -17.175115 0.000000 0.000000 0.000000 1.905217 -39.045582 8.667355 -11.402581 -8.557520 -35.809166 54.940307 3.439005 -6.517362 -42.666693 -12.679638 29.055130 0.000000 0.000000 0.000000 1.905217 -39.045582 8.667355 0.000000 -0.000001 0.000000 17.256119 -5.455483 2.968000 27.212093 -3.554406 -1.949091 0.000000 0.000000 0.000000 16.129910 -2.065770 -3.134687 0.291798 0.305442 3.548366 0.000000 0.000000 0.000000 16.129910 -2.065770 -3.134687 2.180196 -30.084685 2.687265 -32.508941 -24.092750 -31.048158 -8.013980 -21.085994 0.699045 0.000000 0.000000 0.000000 16.129910 -2.065770 -3.134687 -0.531466 12.423656 23.593297 -19.558385 -22.044751 20.084135 3.473112 83.560261 -3.939764 0.000000 0.000000 0.000000 
-10.703030 78.855225 7.267397 0.000000 0.000000 0.000000 0.944610 -38.081546 7.636244 -58.315861 26.386559 42.764805 44.074299 -29.748827 2.581991 4.049408 -1.430010 -16.301776 0.000000 0.000000 0.000000 0.944610 -38.081546 7.636244 -9.754457 -9.540093 -35.275793 53.532656 3.035410 -6.451807 -41.934585 -13.011887 29.367734 0.000000 0.000000 0.000000 0.944610 -38.081546 7.636244 0.000000 0.000000 -0.000001 16.973973 -5.219207 2.978182 26.497524 -3.322631 -1.871163 0.000000 0.000000 0.000000 15.414540 -1.914824 -2.870126 0.074593 0.423750 3.358153 0.000000 0.000000 0.000000 15.414540 -1.914824 -2.870126 2.094821 -29.741266 2.683926 -32.458282 -24.179759 -32.033888 -7.953848 -18.514146 0.568102 0.000000 0.000000 0.000000 15.414540 -1.914824 -2.870126 -0.581440 12.172556 22.633324 -18.476234 -23.129502 20.926057 8.441333 83.819494 -8.872055 0.000000 0.000000 0.000000 
-10.261063 79.001045 7.332066 0.000000 0.000000 0.000000 0.421163 -37.310366 6.896678 -58.999311 26.250937 42.732238 44.482427 -29.773717 2.621646 4.447372 -2.212332 -15.492279 0.000000 0.000000 0.000000 0.421163 -37.310366 6.896678 -8.617458 -10.187550 -34.741979 52.327923 2.659580 -6.395290 -41.172018 -13.291431 29.671964 0.000000 0.000000 0.000000 0.421163 -37.310366 6.896678 0.000000 0.000003 0.000000 16.668278 -4.955765 2.968357 25.694740 -3.058035 -1.812178 0.000000 0.000000 0.000000 14.600547 -1.729654 -2.630742 -0.153991 0.521693 3.137477 0.000000 0.000000 0.000000 14.600547 -1.729654 -2.630742 2.003540 -29.369738 2.652568 -32.151360 -23.761163 -32.868021 -7.911237 -17.129761 0.318790 0.000000 0.000000 0.000000 14.600547 -1.729654 -2.630742 -0.689640 12.059403 21.568686 -17.317847 -24.231768 21.746175 11.487880 83.685336 -11.686987 0.000000 0.000000 0.000000 
-9.835312 79.127113 7.388393 0.000000 0.000000 0.000000 0.059186 -36.785845 6.240481 -59.698162 26.077635 42.835460 44.989978 -29.745546 2.669591 4.697186 -2.848377 -14.756965 0.000000 0.000000 0.000000 0.059186 -36.785845 6.240481 -7.786560 -10.621164 -34.246965 51.267854 2.365712 -6.340936 -40.401245 -13.439651 29.954297 0.000000 0.000000 0.000000 0.059186 -36.785845 6.240481 0.000000 0.000002 0.000000 16.370317 -4.659506 2.924427 24.834139 -2.738012 -1.723907 0.000000 0.000000 0.000000 13.727762 -1.481887 -2.359214 -0.392255 0.603107 2.922198 0.000000 0.000000 0.000000 13.727762 -1.481887 -2.359214 1.907607 -28.973085 2.599553 -31.865428 -23.316512 -33.754330 -7.844783 -15.728162 0.059814 0.000000 0.000000 0.000000 13.727762 -1.481887 -2.359214 -0.828424 12.018034 20.267579 -16.012660 -25.299897 22.887851 11.681597 83.584577 -11.829824 0.000000 0.000000 0.000000 
-9.438627 79.263397 7.461584 0.000000 0.000000 0.000000 -0.144076 -36.443321 5.631990 -60.409950 25.860747 43.055849 45.530099 -29.678036 2.721068 4.824695 -3.379104 -14.092303 0.000000 0.000000 0.000000 -0.144076 -36.443321 5.631990 -7.132314 -10.937488 -33.719114 50.164365 2.107685 -6.278696 -39.561402 -13.477805 30.219868 0.000000 0.000000 0.000000 -0.144076 -36.443321 5.631990 0.000000 0.000000 0.000000 16.041947 -4.334003 2.860153 23.874134 -2.378899 -1.661031 0.000000 0.000000 0.000000 12.746244 -1.195063 -2.114457 -0.636986 0.674572 2.748684 0.000000 0.000000 0.000000 12.746244 -1.195063 -2.114457 1.808337 -28.559733 2.531817 -31.661578 -22.934337 -34.762719 -7.765074 -14.016617 -0.175859 0.000000 0.000000 0.000000 12.746244 -1.195063 -2.114457 -0.998212 12.045921 18.894801 -14.805803 -26.204413 23.853538 8.172813 83.221900 -7.948653 0.000000 0.000000 0.000000 
-9.075153 79.394463 7.516066 0.000000 0.000000 0.000000 -0.236459 -36.448642 5.143929 -60.958346 25.672285 43.368703 46.060757 -29.525446 2.772645 4.775334 -3.701481 -13.580561 0.000000 0.000000 0.000000 -0.236459 -36.448642 5.143929 -6.882014 -10.995952 -33.376139 49.305951 1.992801 -6.221712 -38.755443 -13.331024 30.447843 0.000000 0.000000 0.000000 -0.236459 -36.448642 5.143929 0.000000 0.000002 0.000000 15.747387 -4.061926 2.706735 22.924266 -2.080315 -1.686862 0.000000 0.000000 0.000000 11.767095 -0.928475 -2.016855 -0.884545 0.745872 2.652605 0.000000 0.000000 0.000000 11.767095 -0.928475 -2.016855 1.699115 -28.114732 2.440024 -30.479186 -21.204362 -35.084551 -7.794455 -15.009151 -0.741282 0.000000 0.000000 0.000000 11.767095 -0.928475 -2.016855 -1.273285 12.683049 17.775282 -13.685189 -27.202178 24.718514 2.553247 82.720933 -2.171166 0.000000 0.000000 0.000000 
-8.739847 79.508293 7.557301 0.000000 0.000000 0.000000 -0.243224 -36.723533 4.672406 -61.487781 25.394078 43.849142 46.709430 -29.320581 2.832994 4.553521 -3.876427 -13.173918 0.000000 0.000000 0.000000 -0.243224 -36.723533 4.672406 -6.920108 -10.873712 -33.077677 48.613042 1.970948 -6.169450 -37.968677 -13.038426 30.640871 0.000000 0.000000 0.000000 -0.243224 -36.723533 4.672406 0.000000 0.000000 0.000000 15.459894 -3.720832 2.483714 21.959178 -1.638662 -1.746981 0.000000 0.000000 0.000000 10.776221 -0.487440 -1.926382 -1.223851 0.793476 2.724592 0.000000 0.000000 0.000000 10.776221 -0.487440 -1.926382 1.535526 -27.653776 2.236995 -29.438071 -19.826969 -35.379547 -7.849065 -15.756393 -1.303347 0.000000 0.000000 0.000000 10.776221 -0.487440 -1.926382 -1.558133 12.888401 17.036905 -13.097052 -27.809539 25.131667 -2.297382 81.906768 3.149502 0.000000 0.000000 0.000000 
